<svg xmlns="http://www.w3.org/2000/svg" height="764" viewBox="0 0 573.2 573" width="764"><path d="M572.215 286.207c0 158.016-128.094 286.11-286.106 286.11C128.094 572.316 0 444.222 0 286.206 0 128.195 128.094.102 286.11.102c158.011 0 286.105 128.093 286.105 286.105zm0 0" fill="#f06529"/><path d="M463.633 61.93c0 .77.058 1.527.058 2.297-.02 215.863-156.945 399.695-370.125 433.605 116.485 106.766 297.465 98.895 404.235-17.582 106.765-116.477 98.902-297.473-17.582-404.242a283.025 283.025 0 0 0-16.586-14.078zm0 0" fill="#e0561a"/><path d="M365.035 453.926c-21.793 0-39.465-17.668-39.465-39.461S343.242 375 365.035 375c21.793 0 39.461 17.672 39.461 39.465 0 21.793-17.668 39.46-39.46 39.46zm0-59.196c-10.902 0-19.73 8.832-19.73 19.73 0 10.903 8.828 19.735 19.73 19.735 10.902 0 19.73-8.832 19.73-19.734 0-10.899-8.827-19.73-19.73-19.73zm0 0M270.078 254.45a190.716 190.716 0 0 0 118.637 41.624h183.254c.11-3.285.25-6.562.25-9.867 0-3.305-.14-6.582-.25-9.863H388.71a170.855 170.855 0 0 1-106.332-37.305 190.646 190.646 0 0 0-118.606-41.625H14.117a295.882 295.882 0 0 0-5.672 19.73h155.328a170.779 170.779 0 0 1 106.305 37.305zm0 0" fill="#d44a0f"/><path d="M75.078 323.797l14.258-21.133a82.458 82.458 0 0 1 68.516-36.187c43.261-.258 78.574 34.558 78.93 77.82a57.593 57.593 0 0 1-19.548 42.426 57.289 57.289 0 0 1-57.054 15.359 46.429 46.429 0 0 1-30.809-35.594c-2.656-15.62 4.973-31.199 18.941-38.668a28.99 28.99 0 0 1 29.418-.855 26.115 26.115 0 0 1 13.016 22.383h19.73a45.878 45.878 0 0 0-22.808-39.461 48.212 48.212 0 0 0-49.074.738c-21.301 11.555-32.824 35.438-28.61 59.305a66.165 66.165 0 0 0 43.844 50.789 67.093 67.093 0 0 0 21.781 3.61 82.459 82.459 0 0 0 54.836-23.017 77.33 77.33 0 0 0 26.063-57.015c-.363-54.152-44.504-97.79-98.656-97.555a102.192 102.192 0 0 0-84.848 44.883L58.73 312.746a49.417 49.417 0 0 1-41.082 21.703H4.133a285.102 285.102 0 0 0 4.054 19.73h9.461a69.126 69.126 0 0 0 57.43-30.382zm0 0M284.766 379.047c-21.153 45.578-66.79 74.781-117.047 74.879v19.73c57.953-.105 110.574-33.789 134.965-86.355 11.828-25.512 37.37-41.848 65.488-41.899H566.05c1.36-6.492 2.476-13.082 3.394-19.73H368.184c-35.817.058-68.352 20.875-83.418 53.375zm0 0M125.484 522.988h321.25a286.465 286.465 0 0 0 25.653-19.73H99.812c8.18 7.05 16.75 13.64 25.672 19.73zm0 0M355.168 197.414c-27.238 0-49.328-22.09-49.328-49.328 0-27.238 22.09-49.328 49.328-49.328 27.242 0 49.328 22.09 49.328 49.328-.027 27.23-22.098 49.289-49.328 49.328zm0-78.926c-16.348 0-29.598 13.25-29.598 29.598s13.25 29.598 29.598 29.598 29.598-13.25 29.598-29.598-13.25-29.598-29.598-29.598zm0 0M279.055 110.688a109.179 109.179 0 0 1 85.98-41.528V49.43a128.809 128.809 0 0 0-101.43 48.992 104.66 104.66 0 0 1-82.402 39.8H41.211c-3.879 6.403-7.461 13.012-10.856 19.731h150.852a124.276 124.276 0 0 0 97.848-47.266zm0 0M437.105 169.547a8.288 8.288 0 0 0-.683 1.152c-17.156 34.61-52.492 56.453-91.117 56.317v19.73c45.843.156 87.843-25.633 108.445-66.594a52.081 52.081 0 0 1 42.66-22.199h45.383c-3.375-6.719-6.906-13.328-10.852-19.73h-34.53a71.723 71.723 0 0 0-59.306 31.324zm0 0M277.871 37.078a145.48 145.48 0 0 1 40.774-25.652l20.273-6.395a288.147 288.147 0 0 0-42.59-4.683 165.463 165.463 0 0 0-31.57 21.96 146.21 146.21 0 0 1-97.246 36.985h-55.586A288.188 288.188 0 0 0 88.91 79.027h78.602a166.042 166.042 0 0 0 110.36-41.949zm0 0" fill="#d44a0f"/></svg>