<svg xmlns="http://www.w3.org/2000/svg" height="764" viewBox="0 0 573.2 573" width="764"><path d="M572.215 286.207c0 158.016-128.094 286.11-286.106 286.11C128.094 572.316 0 444.222 0 286.206 0 128.195 128.094.102 286.11.102c158.011 0 286.105 128.093 286.105 286.105zm0 0" fill="#2a90de"/><path d="M463.633 61.93c0 .77.058 1.527.058 2.297-.02 215.863-156.945 399.695-370.125 433.605 116.485 106.766 297.465 98.895 404.235-17.582 106.765-116.477 98.902-297.473-17.582-404.242a283.025 283.025 0 0 0-16.586-14.078zm0 0" fill="#2379ba"/><path d="M177.586 296.074l-39.465-49.328H69.062v88.793L118.392 375v78.926h49.328v-19.73l49.328-69.06v-69.062zm0 0M434.094 236.879h-39.461V187.55h1.094l-30.692-39.465H256.512v69.062l39.46 59.196h59.196V394.73h39.465l39.46-49.328v-39.46l39.466-69.063zm0 0M69.063 246.746v-49.328h39.46l39.465-78.93v-39.46H88.941a287.207 287.207 0 0 0-44.793 54.566 271.135 271.135 0 0 0-11.836 20.668l-.062.117a284.152 284.152 0 0 0-24.95 67.7l-.128.573a286.398 286.398 0 0 0-4.399 24.07zm0 0" fill="#67ab73"/><path d="M305.84 49.43h-39.461v59.195h138.117l59.195 78.926h40.075l35.203-35.203a286.344 286.344 0 0 0-34.344-50.739l-.445-.511a285.005 285.005 0 0 0-9.489-10.618l-1.066-1.113a268.01 268.01 0 0 0-9.57-9.629l-1.192-1.136a291.93 291.93 0 0 0-10.215-9.223c-.312-.277-.62-.555-.984-.82a290.95 290.95 0 0 0-11.504-9.332h-.05a285.59 285.59 0 0 0-81.243-43.618l-.523-.175a289.267 289.267 0 0 0-14.406-4.48l-.583-.161c-4.968-1.398-10-2.664-15.082-3.797zm0 0" fill="#67ab73"/><path d="M207.184 39.563H78.926c-10.903 0-19.73 8.828-19.73 19.73 0 10.902 8.827 19.734 19.73 19.734h9.984l.426-.406 58.652.406h59.196c10.898 0 19.73-8.832 19.73-19.734 0-10.902-8.832-19.73-19.73-19.73zm0 0M108.523 296.074H19.73c-10.902 0-19.73 8.828-19.73 19.73 0 10.903 8.828 19.731 19.73 19.731h88.793c10.903 0 19.73-8.828 19.73-19.73 0-10.903-8.827-19.73-19.73-19.73zm0 0" fill="#d0d7df"/><path d="M108.523 296.074H19.73c-10.902 0-19.73 8.828-19.73 19.73 0 10.903 8.828 19.731 19.73 19.731h88.793c10.903 0 19.73-8.828 19.73-19.73 0-10.903-8.827-19.73-19.73-19.73zm0 0M207.184 453.926H69.063c-10.856.101-19.633 8.879-19.735 19.73 0 10.903 8.832 19.735 19.734 19.735h138.122c10.898 0 19.73-8.832 19.73-19.735 0-10.898-8.832-19.73-19.73-19.73zm0 0M552.484 276.344h-49.328c-10.902 0-19.73 8.828-19.73 19.73 0 10.899 8.828 19.73 19.73 19.73h49.328c9.602-.03 17.79-6.964 19.399-16.437.078-1.746.086-3.512.137-5.27-.989-10.058-9.434-17.734-19.536-17.753zm0 0M548.41 400.484a24.436 24.436 0 0 0-15.656-5.754H281.176c-13.625 0-24.664 11.043-24.664 24.665 0 13.625 11.039 24.664 24.664 24.664h251.578c13.566.062 24.605-10.903 24.664-24.465a24.54 24.54 0 0 0-9.008-19.11zm0 0M325.57 542.719h73.996c13.622 0 24.664-11.04 24.664-24.664 0-13.625-11.043-24.664-24.664-24.664H325.57c-13.625 0-24.664 11.039-24.664 24.664 0 13.625 11.04 24.664 24.664 24.664zm0 0" fill="#d0d7df"/><path d="M147.988 98.758v-19.73H88.941c-6.562 6.242-12.738 12.894-18.687 19.73zm0 0" fill="#61a16c"/><path d="M207.184 79.027h-59.196v19.73h59.196c10.832.067 19.66-8.663 19.73-19.495.02-3.551-.93-7.043-2.734-10.102a19.667 19.667 0 0 1-16.996 9.867zm0 0" fill="#2379ba"/><path d="M256.512 207.281H221.98c-13.625 0-24.664 11.04-24.664 24.664 0 13.625 11.04 24.664 24.664 24.664h60.844l-26.312-39.46zm0 0" fill="#2a90de"/><path d="M488.36 207.281h-93.727v29.598h78.926l-11.278 19.73h26.074c13.625 0 24.665-11.039 24.665-24.664 0-13.625-11.04-24.664-24.66-24.664zm0 0" fill="#2379ba"/><path d="M434.094 236.879h-39.461V207.28H256.512v9.867l26.312 39.461h179.457l11.278-19.73zm0 0" fill="#61a16c"/><path d="M488.36 187.55H221.98c-13.625 0-24.664 11.04-24.664 24.665s11.04 24.664 24.664 24.664h266.38c13.62 0 24.663-11.04 24.663-24.664 0-13.625-11.043-24.664-24.664-24.664zm0 0" fill="#d0d7df"/><path d="M552.484 315.805h-49.328a19.674 19.674 0 0 1-17-9.864c-5.515 9.32-2.426 21.348 6.899 26.864a19.675 19.675 0 0 0 10.101 2.734h49.328c6.977 0 13.43-3.71 16.942-9.738.726-5.27 1.3-10.598 1.746-15.953a20.161 20.161 0 0 0-1.719-3.828 19.596 19.596 0 0 1-16.969 9.785zm0 0M281.176 444.063a24.667 24.667 0 0 1-22.582-14.801c-5.446 12.48.258 27.023 12.734 32.468a24.822 24.822 0 0 0 9.848 2.063h229.172a300.94 300.94 0 0 0 14.363-19.73zm0 0M226.914 493.39a19.625 19.625 0 0 0-2.734-9.867 19.659 19.659 0 0 1-16.996 9.868H88.91a287.396 287.396 0 0 0 23.02 19.73h95.254c10.898 0 19.73-8.84 19.73-19.73zm0 0M399.566 542.719h-73.992a24.68 24.68 0 0 1-22.586-14.797c-5.445 12.48.258 27.02 12.739 32.465a24.794 24.794 0 0 0 9.847 2.062h35.063a284.256 284.256 0 0 0 63.496-25.648 24.624 24.624 0 0 0-1.973-8.88 24.682 24.682 0 0 1-22.594 14.798zm0 0" fill="#2379ba"/><path d="M128.254 335.54a19.61 19.61 0 0 0-2.73-9.868 19.678 19.678 0 0 1-17 9.867H69.061l24.665 19.73h14.796c10.903 0 19.73-8.84 19.73-19.73zm0 0M394.633 394.73l39.46-49.328v-39.46l39.466-69.063h-45.145a439.188 439.188 0 0 1-73.246 116.23v41.621h39.465zm0 0M488.36 187.55h15.41l35.128-35.132c-.55-1.047-1.101-2.11-1.675-3.156a259.383 259.383 0 0 0-4.055-7.172 268.906 268.906 0 0 0-3.945-6.543 305.858 305.858 0 0 0-4.184-6.55c-1.422-2.161-2.96-4.458-4.539-6.661-1.41-1.973-2.84-4.016-4.3-5.988a316.485 316.485 0 0 0-5.134-6.7 293.28 293.28 0 0 0-4.37-5.453 471.654 471.654 0 0 0-5.919-6.906c-1.39-1.578-2.78-3.156-4.203-4.707-2.14-2.328-4.34-4.598-6.558-6.906-1.414-1.43-2.813-2.871-4.254-4.27-2.32-2.261-4.696-4.449-7.082-6.633-1.453-1.32-2.895-2.652-4.364-3.945a247.172 247.172 0 0 0-7.488-6.266 202.79 202.79 0 0 0-3.176-2.574c0 .739.059 1.473.059 2.211a440.361 440.361 0 0 1-12.984 106.008l12.964 17.344zm0 0" fill="#61a16c"/><path d="M69.063 355.27h24.664l-24.665-19.73H19.73a19.633 19.633 0 0 1-16.859-9.673l-.058.121a285.954 285.954 0 0 0 4.566 24.664 19.328 19.328 0 0 0 12.351 4.618zm0 0" fill="#2379ba"/></svg>