<svg xmlns="http://www.w3.org/2000/svg" height="764" viewBox="0 0 573.2 573" width="764"><path d="M572.215 286.207c0 158.016-128.094 286.11-286.106 286.11C128.094 572.316 0 444.222 0 286.206 0 128.195 128.094.102 286.11.102c158.011 0 286.105 128.093 286.105 286.105zm0 0" fill="#f04729"/><path d="M463.633 61.93c0 .77.058 1.527.058 2.297-.02 215.863-156.945 399.695-370.125 433.605 116.485 106.766 297.465 98.895 404.235-17.582 106.765-116.477 98.902-297.473-17.582-404.242a283.025 283.025 0 0 0-16.586-14.078zm0 0" fill="#dd381a"/><path d="M381.066 434.195c-32.695 0-59.195-26.5-59.195-59.195s26.5-59.195 59.195-59.195c32.696 0 59.196 26.5 59.196 59.195-.032 32.676-26.52 59.156-59.196 59.195zm0-98.656c-21.793 0-39.46 17.668-39.46 39.461s17.667 39.465 39.46 39.465 39.465-17.672 39.465-39.465c0-21.793-17.672-39.46-39.465-39.46zm0 0M187.45 197.414c-21.794 0-39.462-17.668-39.462-39.46 0-21.794 17.668-39.466 39.461-39.466s39.465 17.672 39.465 39.465c0 21.793-17.672 39.461-39.465 39.461zm0-59.191c-10.903 0-19.731 8.828-19.731 19.73 0 10.899 8.832 19.73 19.73 19.73 10.903 0 19.735-8.828 19.735-19.73 0-10.902-8.832-19.73-19.735-19.73zm0 0M556.254 236.05a170.311 170.311 0 0 1-46.934-26.636 190.712 190.712 0 0 0-118.632-41.598h-1.977a190.692 190.692 0 0 0-118.664 41.625 170.781 170.781 0 0 1-106.274 37.301h-161A282.854 282.854 0 0 0 .75 266.477h163.023a190.692 190.692 0 0 0 118.665-41.625 170.811 170.811 0 0 1 106.277-37.305h1.973a170.847 170.847 0 0 1 106.332 37.305 189.991 189.991 0 0 0 52.39 29.687 104.293 104.293 0 0 0 21.586 5.316 319.498 319.498 0 0 0-2.625-20.472 81.809 81.809 0 0 1-12.117-3.332zm0 0" fill="#c43117"/><path d="M58.031 126.758a167.865 167.865 0 0 0 56.235-14.887l17.168-8.574a138.736 138.736 0 0 1 122.011 0l17.145 8.574a157.048 157.048 0 0 0 69.781 16.484h184.344a282.336 282.336 0 0 0-14.367-19.73H340.37a137.15 137.15 0 0 1-61.012-14.406l-17.144-8.574a158.755 158.755 0 0 0-139.652 0l-17.165 8.574a137.728 137.728 0 0 1-41.554 11.898c-5.407 6.66-10.547 13.555-15.344 20.719h8.535c.336-.012.668-.04.996-.078zm0 0M449.969 304.48c-38.278-37.52-99.524-37.52-137.805 0a103.083 103.083 0 0 1-71.805 31.055H4.32c1.164 6.66 2.516 13.242 4.125 19.73H240.36a122.71 122.71 0 0 0 85.618-36.69c30.593-30.009 79.586-30.009 110.18 0a122.726 122.726 0 0 0 85.616 36.69h41.997c1.609-6.488 2.96-13.07 4.125-19.73H521.77a103.147 103.147 0 0 1-71.801-31.055zm0 0M436.156 431.422c-30.594 30.012-79.586 30.012-110.18 0a122.726 122.726 0 0 0-85.617-36.692h-219a285.804 285.804 0 0 0 9.016 19.73h209.984a103.087 103.087 0 0 1 71.805 31.06c38.277 37.52 99.524 37.52 137.805 0a103.17 103.17 0 0 1 71.804-31.06h20.067a283.968 283.968 0 0 0 9.015-19.73h-29.082a122.726 122.726 0 0 0-85.617 36.692zm0 0M335.438 532.852c0-27.622-30.336-49.329-69.06-49.329-38.726 0-69.062 21.707-69.062 49.329a40.88 40.88 0 0 0 13.25 29.312 286.092 286.092 0 0 0 75.543 10.152c8.13 0 16.149-.421 24.102-1.086a45.391 45.391 0 0 0 25.226-38.378zm-69.06 29.597c-26.737 0-49.331-13.554-49.331-29.597 0-16.04 22.594-29.598 49.332-29.598 26.734 0 49.328 13.558 49.328 29.598 0 16.043-22.594 29.597-49.328 29.597zm0 0" fill="#c43117"/></svg>