<svg xmlns="http://www.w3.org/2000/svg" height="764" viewBox="0 0 573.2 573" width="764"><path d="M472.402 69.16H99.812a287.325 287.325 0 0 0-64.296 78.926h501.183a287.254 287.254 0 0 0-64.297-78.926zm0 0" fill="#f09e26"/><path d="M19.996 213.813a238.706 238.706 0 0 1 78.395 0l39.996 6.671a238.706 238.706 0 0 0 78.394 0l39.996-6.672a238.706 238.706 0 0 1 78.395 0l39.996 6.672a238.706 238.706 0 0 0 78.394 0l39.997-6.672a238.426 238.426 0 0 1 68.793-1.398h.214a283.735 283.735 0 0 0-25.867-64.328H35.516A283.975 283.975 0 0 0 8.75 215.738l1.117-.238zm0 0" fill="#fabc5f"/><path d="M286.11.102A284.873 284.873 0 0 0 99.811 69.16h372.59A284.862 284.862 0 0 0 286.11.102zm0 0" fill="#e38800"/><path d="M315.184 345.582a188.774 188.774 0 0 1 119.433 0 189.005 189.005 0 0 0 59.719 9.688h69.437a286.414 286.414 0 0 0 8.446-69.06H0c0 23.274 2.832 46.466 8.445 69.06h247.02a189.337 189.337 0 0 0 59.719-9.688zm0 0" fill="#fabc5f"/><path d="M494.336 355.27c-20.293 0-40.461-3.278-59.719-9.688a188.774 188.774 0 0 0-119.433 0 189.115 189.115 0 0 1-59.72 9.688H8.446a285.46 285.46 0 0 0 70.59 128.253h176.43c20.293 0 40.46 3.278 59.719 9.692a188.828 188.828 0 0 0 119.433 0 188.946 188.946 0 0 1 58.516-9.64 285.499 285.499 0 0 0 70.64-128.305h-69.437zm0 0" fill="#f09e26"/><path d="M434.617 493.215a188.828 188.828 0 0 1-119.433 0 189.009 189.009 0 0 0-59.72-9.692H79.036c108.832 114.368 289.77 118.844 404.133 10.016a282.003 282.003 0 0 0 9.965-9.965c-19.89.11-39.64 3.363-58.516 9.64zm0 0" fill="#fabc5f"/><path d="M562.566 212.453h-.214a238.564 238.564 0 0 0-68.793 1.399l-39.997 6.671a238.706 238.706 0 0 1-78.394 0l-39.996-6.671a238.706 238.706 0 0 0-78.395 0l-39.996 6.671a238.706 238.706 0 0 1-78.394 0l-39.996-6.671a238.706 238.706 0 0 0-78.395 0L9.867 215.5l-1.097.238A286.722 286.722 0 0 0 0 286.211h572.219c0-24.902-3.239-49.695-9.653-73.758zm0 0" fill="#f09e26"/><path d="M463.633 61.93c0 .77.058 1.53.058 2.3-.02 215.864-156.945 399.692-370.125 433.602 116.485 106.766 297.465 98.895 404.235-17.582 106.765-116.473 98.902-297.473-17.582-404.242a286.079 286.079 0 0 0-16.586-14.078zm0 0" fill="#e6941e"/><path d="M431.492 483.86a180.074 180.074 0 0 1-113.18 0 198.343 198.343 0 0 0-62.847-10.2H70.047a287.133 287.133 0 0 0 18.844 19.73h166.574a178.606 178.606 0 0 1 56.601 9.184 199.921 199.921 0 0 0 125.668 0 178.867 178.867 0 0 1 45.086-8.719 287.983 287.983 0 0 0 19.348-20.195h-7.813a198.165 198.165 0 0 0-62.863 10.2zm0 0M318.313 354.934a180.074 180.074 0 0 1 113.18 0 198.415 198.415 0 0 0 62.843 10.203h66.762c1.863-6.492 3.55-13.063 4.933-19.73h-71.695a178.61 178.61 0 0 1-56.602-9.188 199.894 199.894 0 0 0-125.668 0 178.592 178.592 0 0 1-56.601 9.187H6.165c1.401 6.668 3.089 13.239 4.933 19.73h244.367c21.36 0 42.582-3.445 62.847-10.202zm0 0M572.219 286.21c0-3.304-.14-6.581-.25-9.866H.246C.136 279.629 0 282.902 0 286.21c0 3.305.137 6.578.246 9.863H571.97c.11-3.285.25-6.558.25-9.863zm0 0M531.008 138.223H41.21c-3.879 6.402-7.461 13.011-10.852 19.73h511.48c-3.374-6.719-6.956-13.328-10.831-19.73zm0 0M21.617 223.543a228.7 228.7 0 0 1 75.156 0l39.997 6.668a246.995 246.995 0 0 0 81.628 0l39.997-6.668a228.723 228.723 0 0 1 75.16 0l39.996 6.668a248.05 248.05 0 0 0 81.629 0l39.996-6.668a228.472 228.472 0 0 1 65.558-1.395l4.36.73c-1.57-6.964-3.344-13.812-5.418-20.597a248.763 248.763 0 0 0-67.739 1.805l-39.996 6.668a228.7 228.7 0 0 1-75.156 0l-39.996-6.668a246.995 246.995 0 0 0-81.629 0l-39.996 6.668a228.7 228.7 0 0 1-75.156 0l-39.996-6.668a247.487 247.487 0 0 0-81.64 0l-6.731 1.351a296.027 296.027 0 0 0-5.317 20.887l5.16-1.086zm0 0M460.29 59.297H111.93a287.396 287.396 0 0 0-23.02 19.73h394.395a287.34 287.34 0 0 0-23.016-19.73zm0 0M299.012 419.652l11.968-9.234a101.335 101.335 0 0 1 58.395-15.684c37.035 0 64.719 15.043 64.719 28.5 0 3.227-4.172 8.434-13.485 12.825-26.875 12.609-59.855 9.543-70.75 1.894a8.633 8.633 0 0 1-2.523-2.496 35.759 35.759 0 0 1 33.02-2.289l8.82-17.66a55.978 55.978 0 0 0-49.328 1.383 20.718 20.718 0 0 0-12.383 15.902 23.236 23.236 0 0 0 11.07 21.32 74.348 74.348 0 0 0 41.297 10.223 118.822 118.822 0 0 0 49.152-10.41c15.786-7.406 24.844-18.598 24.844-30.672 0-27.535-36.308-48.254-84.453-48.254a119.735 119.735 0 0 0-70.441 19.79l-11.977 9.245a45.646 45.646 0 0 1-30.445 10.426H30.516a287.762 287.762 0 0 0 10.922 19.734h215.074a65.452 65.452 0 0 0 42.5-14.543zm0 0" fill="#db8300"/></svg>