<svg xmlns="http://www.w3.org/2000/svg" height="572pt" viewBox="0 0 572.427 572" width="572pt"><path d="M404.07 404.238a700.996 700.996 0 0 1-177.355 131.438c137.77 32.75 276.004-52.387 308.754-190.156a256.451 256.451 0 0 0-.008-118.641 700.747 700.747 0 0 1-131.39 177.36zm0 0" fill="#e38800"/><path d="M145.008 369.84a333.534 333.534 0 0 0 134.23-141.176A333.693 333.693 0 0 1 341.695 142l72.543-72.523 3.403-3.188c-3.325-1.973-6.598-4.043-10.012-5.918a248.097 248.097 0 0 0-13.695-6.812c-.88-.418-1.766-.801-2.645-1.204a230.981 230.981 0 0 0-13.117-5.484l-1.063-.344A254.766 254.766 0 0 0 293.57 30.04l-.84.984a845.174 845.174 0 0 0-109.468 140.563A845.395 845.395 0 0 1 38.559 346.555l-1.36 1.203a257.054 257.054 0 0 0 9.121 29.508c.137.355.285.71.414 1.062 1.707 4.43 3.551 8.797 5.485 13.11.394.875.789 1.765 1.203 2.64 2.14 4.637 4.398 9.223 6.816 13.7 2.137 3.945 4.485 7.78 6.825 11.617a531.183 531.183 0 0 1 45.816-31.372zm0 0" fill="#f09e26"/><path d="M183.254 171.535A844.945 844.945 0 0 1 292.719 30.973l.84-.985c-2.504-.058-5-.226-7.524-.226-141.578-.051-256.383 114.672-256.441 256.25-.008 20.039 2.336 40 6.972 59.488.188.758.434 1.488.621 2.258l1.364-1.203a845.846 845.846 0 0 0 144.703-175.02zm0 0" fill="#f5ae45"/><path d="M456.348 183.398l-48.41 32.922a452.877 452.877 0 0 0-143 157.711 453.242 453.242 0 0 1-77.375 103.461l-32.09 29.25c2.957 1.766 5.918 3.617 8.953 5.266 60.058-20.93 135.355-71.074 205.828-141.547 70.473-70.473 120.621-145.809 141.547-205.867a248.977 248.977 0 0 0-9.86-16.7 452.715 452.715 0 0 1-45.593 35.504zm0 0" fill="#f09e26"/><path d="M264.95 374.027a452.972 452.972 0 0 1 142.995-157.71l48.414-32.919a454.274 454.274 0 0 0 45.582-35.503 257.551 257.551 0 0 0-84.32-81.645l-3.383 3.223-72.523 72.523a333.779 333.779 0 0 0-62.457 86.668 333.57 333.57 0 0 1-134.25 141.172l-32.176 18.187a530.946 530.946 0 0 0-45.73 31.368 257.466 257.466 0 0 0 88.41 87.308l32.05-29.21a453.377 453.377 0 0 0 77.387-103.462zm0 0" fill="#f5ae45"/><path d="M546.438 25.816C507.433-13.23 431.132-6.059 345.323 36.742a255.75 255.75 0 0 1 31.785 9.742l1.043.418a246.955 246.955 0 0 1 13.118 5.48c.878.407 1.765.79 2.644 1.204 4.633 2.148 9.211 4.398 13.695 6.816 44.016-15.336 79.883-15.011 99.528 4.664 19.644 19.676 20 55.512 4.664 99.528-20.926 60.058-71.074 135.383-141.547 205.824-70.473 70.445-145.77 120.621-205.828 141.59-44.012 15.344-79.883 15.008-99.528-4.664-19.644-19.676-20.007-55.551-4.703-99.567-2.414-4.476-4.664-9.062-6.816-13.699-.414-.875-.809-1.765-1.203-2.64a215.827 215.827 0 0 1-5.48-13.11c-.13-.351-.278-.707-.415-1.062a254.823 254.823 0 0 1-9.746-31.766c-42.8 85.797-49.969 162.098-10.972 201.102 38.992 39.003 115.343 31.824 201.152-10.926A700.927 700.927 0 0 0 404.07 404.238a700.678 700.678 0 0 0 131.39-177.36c42.813-85.808 49.97-162.108 10.977-201.062zm0 0" fill="#fabc5f"/><path d="M191.656 176.703A839.177 839.177 0 0 1 300.184 37.422l5.918-6.805c-6.637-.512-13.313-.86-20.067-.86-1.914 0-3.8.102-5.691.15a858.254 858.254 0 0 0-105.465 136.41A835.22 835.22 0 0 1 34.625 336.68c1.469 7.367 3.293 14.597 5.383 21.695l5.246-4.613a855.799 855.799 0 0 0 146.402-177.059zm0 0M149.938 378.406a342.235 342.235 0 0 0 138.136-145.344 322.849 322.849 0 0 1 60.613-84.101l72.305-72.316 5.367-5.04c-5.703-3.738-11.539-7.289-17.546-10.574l-1.547 1.461-72.536 72.524a342.736 342.736 0 0 0-64.296 89.222 322.504 322.504 0 0 1-130.18 137l-32.188 18.188a532.802 532.802 0 0 0-46.046 31.43 265.751 265.751 0 0 0 10.304 16.921 530.117 530.117 0 0 1 45.426-31.152zm0 0M273.617 378.734A445.28 445.28 0 0 1 413.5 224.464l48.41-32.968a466.799 466.799 0 0 0 45.219-35.187 257.683 257.683 0 0 0-10.711-16.688 443.518 443.518 0 0 1-45.602 35.563l-48.41 32.96a465.213 465.213 0 0 0-146.105 161.141 442.39 442.39 0 0 1-75.363 100.86l-34.254 31.21c5.75 3.739 11.64 7.29 17.691 10.563l30.18-27.512a463.17 463.17 0 0 0 79.062-105.672zm0 0" fill="#e38800"/><path d="M345.324 36.742a255.75 255.75 0 0 1 31.785 9.742l1.043.418a246.955 246.955 0 0 1 13.118 5.48c.878.407 1.765.79 2.644 1.204 4.633 2.148 9.211 4.398 13.695 6.816 38.04-13.254 69.922-14.746 90.594-2.218a596.67 596.67 0 0 1 58.461-19.399 77.725 77.725 0 0 0-10.226-12.969C507.433-13.23 431.132-6.059 345.323 36.742zm0 0" fill="#f5ae45"/></svg>