<svg xmlns="http://www.w3.org/2000/svg" height="589pt" viewBox="0 0 589 589.88" width="589pt"><path d="M579.434 259.867A285.746 285.746 0 0 0 479.98 76.273l-.988 1.528A1644.185 1644.185 0 0 1 70.027 471.379a285.843 285.843 0 0 0 190.258 107.598 1368.399 1368.399 0 0 1 319.149-319.11zm0 0" fill="#2683c9"/><path d="M478.992 77.8l.988-1.53a285.687 285.687 0 0 0-96.363-53.63A1470.384 1470.384 0 0 1 19.672 371.966a285.365 285.365 0 0 0 50.344 99.453A1643.982 1643.982 0 0 0 478.992 77.801zm0 0" fill="#2a90de"/><path d="M383.656 22.64a285.659 285.659 0 0 0-88.27-13.937c-7.976 0-15.85.414-23.69 1.055A1409.327 1409.327 0 0 1 11.28 260.293a290.722 290.722 0 0 0-2.16 34.676c0 26.031 3.543 51.933 10.55 76.996A1470.337 1470.337 0 0 0 383.657 22.64zm0 0" fill="#69ccd7"/><path d="M271.695 9.758C136.488 21.004 27.758 125.618 11.285 260.293A1410.062 1410.062 0 0 0 271.695 9.758zm0 0" fill="#2a90de"/><path d="M573.824 361.383l-2.043 1.176a862.5 862.5 0 0 0-214.59 211.914c107.036-23.75 191.13-106.47 216.633-213.09zm0 0" fill="#2379ba"/><path d="M571.781 362.559l2.043-1.176a283.154 283.154 0 0 0 5.61-101.516 1368.416 1368.416 0 0 0-319.149 319.149 283.093 283.093 0 0 0 96.906-4.543 862.364 862.364 0 0 1 214.59-211.914zm0 0" fill="#2379ba"/><path d="M473.012 70.566c0 .77.058 1.532.058 2.301-.02 215.98-157.03 399.914-370.328 433.84 116.547 106.828 297.625 98.95 404.453-17.59 106.828-116.539 98.95-297.629-17.59-404.453a278.025 278.025 0 0 0-16.593-14.098zm0 0" fill="#2379ba"/><path d="M343.215 577.18a282.368 282.368 0 0 0 28.812-6.407 858.61 858.61 0 0 1 197.93-194.812 282.06 282.06 0 0 0 6.832-28.625A877.78 877.78 0 0 0 343.215 577.18zm0 0M580.61 271.348c-.622-7.543-1.493-15.016-2.684-22.387a1387.66 1387.66 0 0 0-328.547 328.543c7.375 1.195 14.809 2.062 22.387 2.683a1367.703 1367.703 0 0 1 308.843-308.84zm0 0M392.234 27.645a9.49 9.49 0 0 0 .621-.985l.426-.773c-6.437-2.375-13-4.352-19.652-6.266a1393.931 1393.931 0 0 1-356.61 342.215c1.618 6.773 3.446 13.465 5.54 20.039a1414.122 1414.122 0 0 0 369.675-354.23zm0 0M486.96 83.664l.622-.836c-4.887-4.433-9.969-8.64-15.152-12.726l-1.383 1.875a1628.877 1628.877 0 0 1-407 391.535 299.653 299.653 0 0 0 12.2 15.574A1648.805 1648.805 0 0 0 486.96 83.664zm0 0M280.73 14.3l3.641-5.323a284.449 284.449 0 0 0-26.652 2.273A1400.098 1400.098 0 0 1 13.316 246.363a286.165 286.165 0 0 0-3.277 26.653l4.938-3.18A1420.292 1420.292 0 0 0 280.73 14.3zm0 0" fill="#2a669e"/><path d="M578.762 11.594c-28.114-28.114-91.801.207-139.887 28.629l-6.512 3.414a273.781 273.781 0 0 1 19.633 11.847c66.363-38.609 101.8-40.937 112.809-29.922 29.71 29.711-47.828 173.47-206.598 332.239C199.437 516.57 55.703 594.066 25.973 564.387c-10.93-10.969-8.727-46.328 29.91-112.82a285.16 285.16 0 0 1-11.68-19.516l-4.105 7.355c-28.211 47.98-55.98 111.031-28.082 138.938a43.952 43.952 0 0 0 32.433 11.578c71.469 0 212.176-102.66 327.727-218.152C509.594 234.379 628.633 61.465 578.762 11.594zm0 0" fill="#69ccd7"/></svg>