<svg xmlns="http://www.w3.org/2000/svg" height="764" viewBox="0 0 573.2 573" width="764"><path d="M572.215 286.207c0 158.016-128.094 286.11-286.106 286.11C128.094 572.316 0 444.222 0 286.206 0 128.195 128.094.102 286.11.102c158.011 0 286.105 128.093 286.105 286.105zm0 0" fill="#2a90de"/><path d="M463.633 61.93c0 .77.058 1.527.058 2.297-.02 215.863-156.945 399.695-370.125 433.605 116.485 106.766 297.465 98.895 404.235-17.582 106.765-116.477 98.902-297.473-17.582-404.242a283.025 283.025 0 0 0-16.586-14.078zm0 0" fill="#2683c9"/><path d="M246.645 375c0-27.242-30.918-49.328-69.06-49.328-38.144 0-69.062 22.086-69.062 49.328 0 27.242 30.918 49.328 69.063 49.328 38.14 0 69.059-22.086 69.059-49.328zm0 0" fill="#2379ba"/><path d="M378.414 325.988a166.349 166.349 0 0 1-91.754-28.258 185.503 185.503 0 0 0-103.234-31.253h-1.817A185.475 185.475 0 0 0 78.383 297.73 166.541 166.541 0 0 1 2.664 324.8c.887 6.552 1.926 13.055 3.234 19.446a186.565 186.565 0 0 0 83.438-30.098 165.762 165.762 0 0 1 92.273-27.941h1.817a166.32 166.32 0 0 1 92.738 28.254 185.454 185.454 0 0 0 102.121 31.258l184.067.926h3.414a289.886 289.886 0 0 0 3.53-19.872zm0 0M275.7 435.852a165.793 165.793 0 0 1-92.274 27.941h-1.817a165.762 165.762 0 0 1-92.273-27.941 186.247 186.247 0 0 0-57.3-25.504l-1.255 4.933c3.157 6.246 6.492 12.383 10.094 18.34a166.007 166.007 0 0 1 37.488 18.668 185.425 185.425 0 0 0 103.246 31.234h1.817a185.965 185.965 0 0 0 103.668-31.57 165.891 165.891 0 0 1 91.219-27.941l158.367.258c3.55-6.415 6.816-13.004 9.867-19.73l-168.281-.278a185.993 185.993 0 0 0-102.567 31.59zm0 0M141.16 532.852h289.895a285.885 285.885 0 0 0 29.234-19.73H111.93a288.838 288.838 0 0 0 29.231 19.73zm0 0M322.95 221.734a553.241 553.241 0 0 0 222.847 4.864l19.246-3.551h.09a318.803 318.803 0 0 0-4.934-19.102l-17.886 3.258a533.452 533.452 0 0 1-214.946-4.687 553.286 553.286 0 0 0-221.12-5.168L9.015 214.68c-1.766 6.836-3.188 13.812-4.45 20.836l105.102-18.743a534.083 534.083 0 0 1 213.281 4.961zm0 0M112.875 96.637a437.092 437.092 0 0 1 18.281 3.441 463.996 463.996 0 0 0 95.758 10.035 464.053 464.053 0 0 0 95.758-10.035 443.54 443.54 0 0 1 169.039-2.77l10.687 1.735a286.447 286.447 0 0 0-22.773-23.527 462.129 462.129 0 0 0-161.02 5.257 442.522 442.522 0 0 1-183.382 0 547.498 547.498 0 0 0-19.094-3.601 190.833 190.833 0 0 0-22.809-2.36 289.917 289.917 0 0 0-19.683 19.82 181.973 181.973 0 0 1 39.238 2.005zm0 0" fill="#2a669e"/><path d="M246.645 375c0-27.242-30.918-49.328-69.06-49.328-38.144 0-69.062 22.086-69.062 49.328 0 27.242 30.918 49.328 69.063 49.328 38.14 0 69.059-22.086 69.059-49.328zm0 0" fill="#2379ba"/><path d="M378.414 325.988a166.349 166.349 0 0 1-91.754-28.258 185.503 185.503 0 0 0-103.234-31.253h-1.817A185.475 185.475 0 0 0 78.383 297.73 166.541 166.541 0 0 1 2.664 324.8c.887 6.552 1.926 13.055 3.234 19.446a186.565 186.565 0 0 0 83.438-30.098 165.762 165.762 0 0 1 92.273-27.941h1.817a166.32 166.32 0 0 1 92.738 28.254 185.454 185.454 0 0 0 102.121 31.258l184.067.926h3.414a289.886 289.886 0 0 0 3.53-19.872zm0 0M275.7 435.852a165.793 165.793 0 0 1-92.274 27.941h-1.817a165.762 165.762 0 0 1-92.273-27.941 186.247 186.247 0 0 0-57.3-25.504l-1.255 4.933c3.157 6.246 6.492 12.383 10.094 18.34a166.007 166.007 0 0 1 37.488 18.668 185.425 185.425 0 0 0 103.246 31.234h1.817a185.965 185.965 0 0 0 103.668-31.57 165.891 165.891 0 0 1 91.219-27.941l158.367.258c3.55-6.415 6.816-13.004 9.867-19.73l-168.281-.278a185.993 185.993 0 0 0-102.567 31.59zm0 0M141.16 532.852h289.895a285.885 285.885 0 0 0 29.234-19.73H111.93a288.838 288.838 0 0 0 29.231 19.73zm0 0M322.95 221.734a553.241 553.241 0 0 0 222.847 4.864l19.246-3.551h.09a318.803 318.803 0 0 0-4.934-19.102l-17.886 3.258a533.452 533.452 0 0 1-214.946-4.687 553.286 553.286 0 0 0-221.12-5.168L9.015 214.68c-1.766 6.836-3.188 13.812-4.45 20.836l105.102-18.743a534.083 534.083 0 0 1 213.281 4.961zm0 0M112.875 96.637a437.092 437.092 0 0 1 18.281 3.441 463.996 463.996 0 0 0 95.758 10.035 464.053 464.053 0 0 0 95.758-10.035 443.54 443.54 0 0 1 169.039-2.77l10.687 1.735a286.447 286.447 0 0 0-22.773-23.527 462.129 462.129 0 0 0-161.02 5.257 442.522 442.522 0 0 1-183.382 0 547.498 547.498 0 0 0-19.094-3.601 190.833 190.833 0 0 0-22.809-2.36 289.917 289.917 0 0 0-19.683 19.82 181.973 181.973 0 0 1 39.238 2.005zm0 0" fill="#2a669e"/></svg>