<?xml version="1.0" encoding="iso-8859-1"?>
<!-- Generator: Adobe Illustrator 19.0.0, SVG Export Plug-In . SVG Version: 6.00 Build 0)  -->
<svg version="1.1" id="Layer_1" xmlns="http://www.w3.org/2000/svg" xmlns:xlink="http://www.w3.org/1999/xlink" x="0px" y="0px"
	 viewBox="0 0 512 512" style="enable-background:new 0 0 512 512;" xml:space="preserve">
<g>
	<g>
		<path style="fill:#FFFFFF;" d="M256,66.783C151.665,66.783,66.783,151.666,66.783,256S151.665,445.217,256,445.217S445.217,360.334,445.217,256
			S360.334,66.783,256,66.783z M256,89.044c72.213,0,133.858,46.088,157.085,110.392C379.379,172.936,322.16,155.826,256,155.826
			s-123.379,17.11-157.085,43.609C122.142,135.131,183.787,89.044,256,89.044z M122.435,244.87H90.928
			c5.128-15.282,20.579-30.104,44.123-41.877c32.12-16.061,75.075-24.905,120.949-24.905s88.829,8.844,120.949,24.905
			c29.239,14.62,46.008,33.94,46.008,53.008s-16.769,38.388-46.008,53.008c-32.12,16.061-75.075,24.905-120.949,24.905
			s-88.829-8.844-120.949-24.905c-23.544-11.773-38.995-26.595-44.123-41.877h31.507c6.146,0,11.13-4.984,11.13-11.13
			S128.581,244.87,122.435,244.87z M256,422.957c-72.213,0-133.858-46.088-157.085-110.392
			c33.706,26.499,90.924,43.609,157.085,43.609s123.379-17.11,157.085-43.609C389.858,376.869,328.213,422.957,256,422.957z"/>
	</g>
</g>
<g>
	<g>
		<path style="fill:#FFFFFF;" d="M256,0c-6.146,0-11.13,4.984-11.13,11.13v22.261c0,6.146,4.984,11.13,11.13,11.13s11.13-4.984,11.13-11.13V11.13
			C267.13,4.984,262.146,0,256,0z"/>
	</g>
</g>
<g>
	<g>
		<path style="fill:#FFFFFF;" d="M256,467.478c-6.146,0-11.13,4.984-11.13,11.13v22.261c0,6.146,4.984,11.13,11.13,11.13s11.13-4.984,11.13-11.13v-22.261
			C267.13,472.462,262.146,467.478,256,467.478z"/>
	</g>
</g>
<g>
</g>
<g>
</g>
<g>
</g>
<g>
</g>
<g>
</g>
<g>
</g>
<g>
</g>
<g>
</g>
<g>
</g>
<g>
</g>
<g>
</g>
<g>
</g>
<g>
</g>
<g>
</g>
<g>
</g>
</svg>
