<?xml version="1.0" encoding="iso-8859-1"?>
<!-- Generator: Adobe Illustrator 19.0.0, SVG Export Plug-In . SVG Version: 6.00 Build 0)  -->
<svg version="1.1" id="Layer_1" xmlns="http://www.w3.org/2000/svg" xmlns:xlink="http://www.w3.org/1999/xlink" x="0px" y="0px"
	 viewBox="0 0 485.827 485.827" style="enable-background:new 0 0 485.827 485.827;" xml:space="preserve">
<g>
	<circle style="fill:#9e8cfc;" cx="242.913" cy="242.913" r="76"/>
	<g>
		<path style="fill:#D7E1F2;" d="M103.57,425.681c-16.132,0-26-5.518-31.954-11.471c-31.96-31.961,7.394-108.531,54.882-169.533
			c3.223-4.14,9.192-4.883,13.332-1.661c4.14,3.223,4.884,9.192,1.661,13.332C83.769,330.496,69.407,385.13,85.052,400.774
			c15.33,15.331,68.888,1.623,141.587-54.244c4.159-3.196,10.125-2.417,13.321,1.744c3.197,4.16,2.417,10.124-1.743,13.321
			c-35.009,26.903-68.508,46.444-96.876,56.511C125.976,423.56,113.569,425.681,103.57,425.681z"/>
	</g>
	<g>
		<path d="M354.758,241.013c-2.015,0-4.044-0.638-5.768-1.957c-4.166-3.189-4.959-9.151-1.77-13.318
			c4.985-6.513,9.777-13.072,14.243-19.496c2.996-4.307,8.916-5.373,13.223-2.377c4.308,2.995,5.372,8.915,2.378,13.223
			c-4.631,6.66-9.595,13.455-14.755,20.197C360.439,239.73,357.614,241.013,354.758,241.013z"/>
	</g>
	<circle style="fill:#D7E1F2;" cx="130.813" cy="351.213" r="17.1"/>
	<path style="fill:#D7E1F2;" d="M360.469,125.356c-8.356-8.357-22.679-8.138-42.571,0.649c-15.275,6.748-33.895,18.485-54.005,34.016
		c-6.715-1.7-13.743-2.608-20.98-2.608c-47.145,0-85.5,38.355-85.5,85.5c0,7.237,0.907,14.265,2.608,20.981
		c-15.696,20.324-27.521,39.133-34.228,54.486c-1.127,2.58-2.1,5.059-2.936,7.449c-10.793,3.39-18.644,13.487-18.644,25.384
		c0,14.667,11.933,26.6,26.6,26.6c9.671,0,18.15-5.189,22.807-12.927c9.828-2.521,21.57-7.891,35.183-16.112
		c10.462-6.318,21.626-14.07,33.144-22.965c6.711,1.698,13.735,2.605,20.967,2.605c47.145,0,85.5-38.355,85.5-85.5
		c0-7.232-0.906-14.255-2.605-20.967c8.895-11.518,16.648-22.682,22.966-33.144C367.549,157.716,371.483,136.37,360.469,125.356z
		 M242.913,176.413c27.912,0,51.847,17.295,61.694,41.724c-12.015,14.884-25.896,30.284-41.041,45.429
		c-15.145,15.145-30.545,29.026-45.43,41.041c-24.429-9.847-41.724-33.781-41.724-61.694
		C176.413,206.245,206.246,176.413,242.913,176.413z M130.813,358.813c-4.191,0-7.6-3.409-7.6-7.6s3.409-7.6,7.6-7.6
		c4.191,0,7.6,3.409,7.6,7.6S135.004,358.813,130.813,358.813z M178.981,332.51c-9.322,5.63-16.745,9.247-22.558,11.534
		c-2.047-7.301-7.133-13.34-13.807-16.659c0.195-0.465,0.376-0.914,0.587-1.397c5.12-11.717,13.698-25.885,25.055-41.44
		c7.738,13.82,19.2,25.282,33.02,33.02C193.573,323.185,186.094,328.214,178.981,332.51z M309.413,242.913
		c0,36.668-29.832,66.5-66.5,66.5c-0.277,0-0.549-0.018-0.825-0.021c11.596-9.936,23.342-20.819,34.914-32.391
		c11.571-11.572,22.454-23.318,32.39-34.914C309.396,242.363,309.413,242.636,309.413,242.913z M332.51,178.98
		c-4.296,7.113-9.325,14.592-14.943,22.298c-7.738-13.819-19.199-25.281-33.018-33.019c15.36-11.216,29.374-19.728,41.026-24.875
		c14.856-6.561,20.788-5.267,21.459-4.594C348.241,139.997,349.446,150.938,332.51,178.98z"/>
	<circle style="fill:#9e8cfc;" cx="404.413" cy="77.613" r="22.8"/>
	<path style="fill:#D7E1F2;" d="M436.713,77.613c0-17.81-14.489-32.3-32.3-32.3c-11.456,0-21.531,6-27.267,15.018c-9.408,0.633-20.695,3.013-34.255,7.962
		c-29.157,10.641-63.451,31.029-99.179,58.958c-4.133,3.231-4.865,9.202-1.633,13.335c3.23,4.134,9.202,4.865,13.335,1.634
		c49.464-38.669,90.295-58.107,116.795-62.235c1.22,16.706,15.191,29.928,32.204,29.928c0.667,0,1.328-0.027,1.986-0.067
		c-1.824,16.852-10.488,39.702-25.37,65.639c-2.611,4.551-1.038,10.357,3.512,12.968c1.491,0.855,3.115,1.262,4.718,1.261
		c3.293,0,6.493-1.714,8.249-4.774c19.176-33.421,28.652-61.71,28.168-83.045C432.435,95.971,436.713,87.285,436.713,77.613z
		 M417.713,77.613c0,5.373-3.367,10.334-8.35,12.337c-5.046,2.029-10.952,0.708-14.661-3.265c-3.939-4.22-4.707-10.714-1.804-15.715
		c2.715-4.676,8.181-7.32,13.535-6.503C412.815,65.441,417.713,71.152,417.713,77.613z"/>
	<circle style="fill:#3B4D81;" cx="284.713" cy="365.463" r="24.7"/>
	<path style="fill:#D7E1F2;" d="M468.082,17.744c-24.95-24.948-72.087-23.547-132.729,3.942C277.558,47.885,213.159,94.882,154.021,154.02
		C94.882,213.159,47.885,277.557,21.686,335.352c-27.49,60.643-28.89,107.781-3.941,132.73
		c11.84,11.839,28.674,17.745,49.579,17.745c23.148,0,51.285-7.241,83.15-21.686c36.192-16.406,74.974-40.97,113.432-71.563
		c5.769,4.438,12.983,7.085,20.808,7.085c18.858,0,34.2-15.342,34.2-34.2c0-6.111-1.619-11.848-4.439-16.818
		c5.819-5.495,11.6-11.108,17.331-16.839c59.138-59.138,106.136-123.537,132.335-181.332
		C491.631,89.83,493.031,42.693,468.082,17.744z M299.913,365.463c0,6.043-3.725,11.649-9.289,14.003
		c-6.167,2.609-13.501,0.724-17.717-4.455c-4.088-5.023-4.471-12.286-0.978-17.735c3.282-5.12,9.471-7.847,15.464-6.776
		C294.54,351.777,299.913,358.204,299.913,365.463z M446.836,142.629c-25.279,55.766-70.902,118.179-128.465,175.741
		c-5.782,5.782-11.614,11.436-17.482,16.969c-4.819-2.598-10.328-4.076-16.176-4.076c-18.858,0-34.2,15.342-34.2,34.2
		c0,4.154,0.746,8.137,2.109,11.824c-37.388,29.808-74.999,53.686-109.992,69.549c-52.152,23.639-92.773,26.488-111.45,7.811
		c-18.677-18.676-15.83-59.298,7.811-111.45c25.279-55.766,70.902-118.179,128.465-175.741
		C225.018,109.893,287.432,64.27,343.197,38.991c29.358-13.308,55.059-20.027,75.251-20.027c15.678,0,28.035,4.052,36.198,12.215
		l0,0C473.324,49.856,470.476,90.477,446.836,142.629z"/>
	<g>
		<path style="fill:#D7E1F2;" d="M199.213,252.413c-5.246,0-9.5-4.253-9.5-9.5c0-29.335,23.865-53.2,53.2-53.2c5.246,0,9.5,4.253,9.5,9.5
			s-4.254,9.5-9.5,9.5c-18.858,0-34.2,15.342-34.2,34.2C208.713,248.16,204.46,252.413,199.213,252.413z"/>
	</g>
	<g>
		<circle style="fill:#9e8cfc;" cx="336.548" cy="359.229" r="0.416"/>
		<path style="fill:#D7E1F2;" d="M336.548,369.144c-5.467,0-9.916-4.448-9.916-9.916s4.448-9.916,9.916-9.916s9.916,4.448,9.916,9.916
			S342.015,369.144,336.548,369.144z"/>
	</g>
</g>
<g>
</g>
<g>
</g>
<g>
</g>
<g>
</g>
<g>
</g>
<g>
</g>
<g>
</g>
<g>
</g>
<g>
</g>
<g>
</g>
<g>
</g>
<g>
</g>
<g>
</g>
<g>
</g>
<g>
</g>
</svg>
