<svg xmlns="http://www.w3.org/2000/svg" xmlns:xlink="http://www.w3.org/1999/xlink" version="1.1" width="256" height="256" viewBox="0 0 256 256" xml:space="preserve">
<desc>Created with Fabric.js 1.7.22</desc>
<defs>
</defs>
<g transform="translate(128 128) scale(0.72 0.72)" style="">
	<g style="stroke: none; stroke-width: 0; stroke-dasharray: none; stroke-linecap: butt; stroke-linejoin: miter; stroke-miterlimit: 10; fill: none; fill-rule: nonzero; opacity: 1;" transform="translate(-175.05 -175.05000000000004) scale(3.89 3.89)" >
	<path d="M 24.975 30.566 c -2.942 0 -5.336 -2.394 -5.336 -5.336 s 2.394 -5.336 5.336 -5.336 s 5.336 2.394 5.336 5.336 S 27.917 30.566 24.975 30.566 z M 24.975 21.894 c -1.84 0 -3.336 1.497 -3.336 3.336 s 1.497 3.336 3.336 3.336 s 3.336 -1.497 3.336 -3.336 S 26.814 21.894 24.975 21.894 z" style="stroke: none; stroke-width: 1; stroke-dasharray: none; stroke-linecap: butt; stroke-linejoin: miter; stroke-miterlimit: 10; fill: rgb(250,250,250); fill-rule: nonzero; opacity: 1;" transform=" matrix(1 0 0 1 0 0) " stroke-linecap="round" />
	<path d="M 7.01 10.49 c -0.27 0 -0.53 -0.11 -0.71 -0.29 C 6.21 10.1 6.14 10 6.08 9.87 C 6.03 9.75 6.01 9.62 6.01 9.49 s 0.02 -0.26 0.07 -0.38 C 6.14 8.99 6.21 8.88 6.3 8.78 c 0.37 -0.37 1.04 -0.37 1.41 0 c 0.1 0.1 0.17 0.21 0.22 0.33 c 0.05 0.12 0.08 0.25 0.08 0.38 S 7.98 9.75 7.93 9.87 C 7.88 10 7.81 10.1 7.71 10.2 C 7.53 10.38 7.27 10.49 7.01 10.49 z" style="stroke: none; stroke-width: 1; stroke-dasharray: none; stroke-linecap: butt; stroke-linejoin: miter; stroke-miterlimit: 10; fill: rgb(250,250,250); fill-rule: nonzero; opacity: 1;" transform=" matrix(1 0 0 1 0 0) " stroke-linecap="round" />
	<path d="M 45 55.784 c -7.142 0 -12.952 -5.811 -12.952 -12.952 S 37.858 29.88 45 29.88 c 0.552 0 1 0.448 1 1 s -0.448 1 -1 1 c -6.039 0 -10.952 4.913 -10.952 10.952 S 38.961 53.784 45 53.784 s 10.952 -4.913 10.952 -10.952 c 0 -0.552 0.447 -1 1 -1 s 1 0.448 1 1 C 57.952 49.974 52.142 55.784 45 55.784 z" style="stroke: none; stroke-width: 1; stroke-dasharray: none; stroke-linecap: butt; stroke-linejoin: miter; stroke-miterlimit: 10; fill: rgb(250,250,250); fill-rule: nonzero; opacity: 1;" transform=" matrix(1 0 0 1 0 0) " stroke-linecap="round" />
	<path d="M 45 70.724 c -15.38 0 -27.892 -12.512 -27.892 -27.892 c 0 -2.892 0.441 -5.743 1.311 -8.474 c 0.167 -0.526 0.731 -0.815 1.256 -0.649 c 0.526 0.167 0.817 0.73 0.649 1.256 c -0.807 2.534 -1.216 5.181 -1.216 7.866 c 0 14.276 11.615 25.892 25.892 25.892 c 14.276 0 25.892 -11.615 25.892 -25.892 C 70.892 28.555 59.276 16.94 45 16.94 c -5.747 0 -11.188 1.843 -15.738 5.33 c -0.438 0.336 -1.066 0.253 -1.402 -0.185 c -0.336 -0.438 -0.253 -1.066 0.185 -1.402 C 32.947 16.926 38.81 14.94 45 14.94 c 15.38 0 27.892 12.512 27.892 27.892 S 60.38 70.724 45 70.724 z" style="stroke: none; stroke-width: 1; stroke-dasharray: none; stroke-linecap: butt; stroke-linejoin: miter; stroke-miterlimit: 10; fill: rgb(250,250,250); fill-rule: nonzero; opacity: 1;" transform=" matrix(1 0 0 1 0 0) " stroke-linecap="round" />
	<path d="M 47.933 85.563 c -0.521 0 -0.96 -0.403 -0.997 -0.931 c -0.038 -0.551 0.378 -1.028 0.929 -1.067 c 21.29 -1.475 37.968 -19.366 37.968 -40.732 C 85.832 20.317 67.515 2 45 2 S 4.168 20.317 4.168 42.832 c 0 17.437 11.072 32.958 27.551 38.624 c 0.522 0.179 0.8 0.748 0.621 1.271 c -0.18 0.521 -0.75 0.799 -1.271 0.62 C 13.782 77.404 2.168 61.122 2.168 42.832 C 2.168 19.214 21.382 0 45 0 c 23.617 0 42.832 19.214 42.832 42.832 c 0 22.412 -17.495 41.181 -39.829 42.729 C 47.979 85.562 47.956 85.563 47.933 85.563 z" style="stroke: none; stroke-width: 1; stroke-dasharray: none; stroke-linecap: butt; stroke-linejoin: miter; stroke-miterlimit: 10; fill: rgb(250,250,250); fill-rule: nonzero; opacity: 1;" transform=" matrix(1 0 0 1 0 0) " stroke-linecap="round" />
	<path d="M 43.604 90 c -2.942 0 -5.336 -2.394 -5.336 -5.336 s 2.394 -5.337 5.336 -5.337 c 2.943 0 5.336 2.395 5.336 5.337 S 46.547 90 43.604 90 z M 43.604 81.327 c -1.84 0 -3.336 1.497 -3.336 3.337 S 41.764 88 43.604 88 s 3.336 -1.496 3.336 -3.336 S 45.444 81.327 43.604 81.327 z" style="stroke: none; stroke-width: 1; stroke-dasharray: none; stroke-linecap: butt; stroke-linejoin: miter; stroke-miterlimit: 10; fill: rgb(250,250,250); fill-rule: nonzero; opacity: 1;" transform=" matrix(1 0 0 1 0 0) " stroke-linecap="round" />
	<path d="M 81.109 83.399 c -0.13 0 -0.26 -0.029 -0.38 -0.08 c -0.13 -0.05 -0.229 -0.119 -0.33 -0.22 c -0.189 -0.18 -0.29 -0.43 -0.29 -0.7 c 0 -0.13 0.021 -0.26 0.08 -0.38 c 0.04 -0.13 0.12 -0.239 0.21 -0.33 c 0.23 -0.229 0.58 -0.34 0.9 -0.27 c 0.07 0.01 0.13 0.03 0.19 0.05 c 0.06 0.03 0.119 0.061 0.17 0.1 c 0.06 0.03 0.109 0.07 0.149 0.12 c 0.101 0.091 0.17 0.2 0.221 0.33 c 0.05 0.12 0.079 0.25 0.079 0.38 c 0 0.131 -0.029 0.261 -0.079 0.381 c -0.051 0.119 -0.12 0.229 -0.221 0.319 c -0.09 0.101 -0.2 0.17 -0.319 0.22 C 81.37 83.37 81.24 83.399 81.109 83.399 z" style="stroke: none; stroke-width: 1; stroke-dasharray: none; stroke-linecap: butt; stroke-linejoin: miter; stroke-miterlimit: 10; fill: rgb(250,250,250); fill-rule: nonzero; opacity: 1;" transform=" matrix(1 0 0 1 0 0) " stroke-linecap="round" />
	<path d="M 10.59 79.81 c -0.13 0 -0.26 -0.02 -0.38 -0.069 c -0.12 -0.051 -0.23 -0.131 -0.32 -0.221 c -0.1 -0.1 -0.17 -0.21 -0.22 -0.33 c -0.05 -0.12 -0.08 -0.25 -0.08 -0.38 s 0.03 -0.26 0.08 -0.38 c 0.05 -0.12 0.12 -0.229 0.22 -0.33 c 0.04 -0.04 0.09 -0.08 0.15 -0.12 c 0.05 -0.04 0.11 -0.069 0.17 -0.09 c 0.06 -0.03 0.12 -0.05 0.19 -0.06 c 0.19 -0.04 0.39 -0.021 0.57 0.06 c 0.13 0.05 0.24 0.12 0.33 0.21 c 0.09 0.101 0.16 0.21 0.22 0.33 c 0.05 0.12 0.07 0.25 0.07 0.38 s -0.02 0.26 -0.07 0.38 c -0.05 0.12 -0.13 0.23 -0.22 0.33 c -0.09 0.09 -0.2 0.17 -0.33 0.221 C 10.85 79.79 10.72 79.81 10.59 79.81 z" style="stroke: none; stroke-width: 1; stroke-dasharray: none; stroke-linecap: butt; stroke-linejoin: miter; stroke-miterlimit: 10; fill: rgb(250,250,250); fill-rule: nonzero; opacity: 1;" transform=" matrix(1 0 0 1 0 0) " stroke-linecap="round" />
	<path d="M 26.13 36.78 c -0.26 0 -0.52 -0.1 -0.71 -0.29 c -0.09 -0.09 -0.16 -0.2 -0.21 -0.32 c -0.05 -0.12 -0.08 -0.25 -0.08 -0.38 c 0 -0.14 0.03 -0.27 0.08 -0.39 c 0.05 -0.12 0.12 -0.23 0.21 -0.32 c 0.24 -0.23 0.58 -0.34 0.91 -0.28 c 0.06 0.02 0.12 0.04 0.18 0.06 c 0.06 0.03 0.12 0.06 0.18 0.09 c 0.05 0.04 0.1 0.08 0.15 0.13 c 0.09 0.09 0.16 0.2 0.21 0.32 s 0.08 0.25 0.08 0.39 c 0 0.13 -0.03 0.25 -0.08 0.38 c -0.05 0.12 -0.12 0.23 -0.21 0.32 c -0.05 0.05 -0.1 0.09 -0.15 0.13 c -0.06 0.03 -0.12 0.06 -0.18 0.09 c -0.06 0.02 -0.12 0.04 -0.18 0.05 C 26.26 36.78 26.19 36.78 26.13 36.78 z" style="stroke: none; stroke-width: 1; stroke-dasharray: none; stroke-linecap: butt; stroke-linejoin: miter; stroke-miterlimit: 10; fill: rgb(250,250,250); fill-rule: nonzero; opacity: 1;" transform=" matrix(1 0 0 1 0 0) " stroke-linecap="round" />
	<path d="M 52.42 78.609 c -0.13 0 -0.26 -0.02 -0.38 -0.069 s -0.23 -0.12 -0.32 -0.221 c -0.189 -0.189 -0.3 -0.439 -0.3 -0.699 c 0 -0.271 0.11 -0.521 0.3 -0.71 c 0.36 -0.37 1.05 -0.37 1.41 0 c 0.189 0.18 0.29 0.439 0.29 0.71 c 0 0.13 -0.021 0.26 -0.07 0.38 s -0.13 0.229 -0.22 0.319 c -0.09 0.101 -0.2 0.171 -0.32 0.221 S 52.56 78.609 52.42 78.609 z" style="stroke: none; stroke-width: 1; stroke-dasharray: none; stroke-linecap: butt; stroke-linejoin: miter; stroke-miterlimit: 10; fill: rgb(250,250,250); fill-rule: nonzero; opacity: 1;" transform=" matrix(1 0 0 1 0 0) " stroke-linecap="round" />
	<path d="M 78.72 40.37 c -0.07 0 -0.13 -0.01 -0.2 -0.02 c -0.06 -0.01 -0.12 -0.03 -0.18 -0.06 c -0.07 -0.02 -0.12 -0.05 -0.18 -0.09 c -0.051 -0.04 -0.101 -0.08 -0.15 -0.12 c -0.19 -0.19 -0.29 -0.45 -0.29 -0.71 c 0 -0.13 0.021 -0.26 0.07 -0.38 c 0.06 -0.12 0.13 -0.23 0.22 -0.33 c 0.37 -0.37 1.05 -0.37 1.42 0 c 0.09 0.1 0.16 0.21 0.21 0.33 s 0.08 0.25 0.08 0.38 c 0 0.26 -0.11 0.52 -0.29 0.71 C 79.24 40.26 78.979 40.37 78.72 40.37 z" style="stroke: none; stroke-width: 1; stroke-dasharray: none; stroke-linecap: butt; stroke-linejoin: miter; stroke-miterlimit: 10; fill: rgb(250,250,250); fill-rule: nonzero; opacity: 1;" transform=" matrix(1 0 0 1 0 0) " stroke-linecap="round" />
	<path d="M 79.91 6.91 c -0.261 0 -0.521 -0.11 -0.7 -0.3 c -0.19 -0.18 -0.3 -0.44 -0.3 -0.71 c 0 -0.26 0.109 -0.52 0.3 -0.7 c 0.229 -0.23 0.57 -0.34 0.899 -0.28 c 0.061 0.02 0.131 0.04 0.19 0.06 c 0.06 0.03 0.11 0.06 0.17 0.09 c 0.05 0.04 0.1 0.08 0.15 0.13 c 0.05 0.04 0.09 0.09 0.12 0.15 c 0.04 0.05 0.069 0.11 0.1 0.17 c 0.02 0.06 0.04 0.13 0.05 0.19 C 80.91 5.77 80.91 5.84 80.91 5.9 c 0 0.27 -0.101 0.53 -0.29 0.71 c -0.051 0.05 -0.101 0.09 -0.15 0.13 c -0.06 0.03 -0.11 0.06 -0.17 0.09 c -0.06 0.02 -0.13 0.04 -0.19 0.06 C 80.04 6.9 79.979 6.91 79.91 6.91 z" style="stroke: none; stroke-width: 1; stroke-dasharray: none; stroke-linecap: butt; stroke-linejoin: miter; stroke-miterlimit: 10; fill: rgb(250,250,250); fill-rule: nonzero; opacity: 1;" transform=" matrix(1 0 0 1 0 0) " stroke-linecap="round" />
	<path d="M 50.67 35.734 h -1.164 c -0.553 0 -1 -0.448 -1 -1 s 0.447 -1 1 -1 h 1.164 c 0.553 0 1 0.448 1 1 S 51.223 35.734 50.67 35.734 z" style="stroke: none; stroke-width: 1; stroke-dasharray: none; stroke-linecap: butt; stroke-linejoin: miter; stroke-miterlimit: 10; fill: rgb(250,250,250); fill-rule: nonzero; opacity: 1;" transform=" matrix(1 0 0 1 0 0) " stroke-linecap="round" />
	<path d="M 56.506 35.734 h -1.165 c -0.553 0 -1 -0.448 -1 -1 s 0.447 -1 1 -1 h 1.165 c 0.553 0 1 0.448 1 1 S 57.059 35.734 56.506 35.734 z" style="stroke: none; stroke-width: 1; stroke-dasharray: none; stroke-linecap: butt; stroke-linejoin: miter; stroke-miterlimit: 10; fill: rgb(250,250,250); fill-rule: nonzero; opacity: 1;" transform=" matrix(1 0 0 1 0 0) " stroke-linecap="round" />
	<path d="M 53.006 33.399 c -0.553 0 -1 -0.448 -1 -1 v -1.165 c 0 -0.552 0.447 -1 1 -1 s 1 0.448 1 1 v 1.165 C 54.006 32.951 53.559 33.399 53.006 33.399 z" style="stroke: none; stroke-width: 1; stroke-dasharray: none; stroke-linecap: butt; stroke-linejoin: miter; stroke-miterlimit: 10; fill: rgb(250,250,250); fill-rule: nonzero; opacity: 1;" transform=" matrix(1 0 0 1 0 0) " stroke-linecap="round" />
	<path d="M 53.006 39.234 c -0.553 0 -1 -0.448 -1 -1 V 37.07 c 0 -0.552 0.447 -1 1 -1 s 1 0.448 1 1 v 1.165 C 54.006 38.787 53.559 39.234 53.006 39.234 z" style="stroke: none; stroke-width: 1; stroke-dasharray: none; stroke-linecap: butt; stroke-linejoin: miter; stroke-miterlimit: 10; fill: rgb(250,250,250); fill-rule: nonzero; opacity: 1;" transform=" matrix(1 0 0 1 0 0) " stroke-linecap="round" />
</g>
</g>
</svg>
